<svg width="860" height="138" viewBox="0 0 860 138" fill="none" xmlns="http://www.w3.org/2000/svg">
<g clip-path="url(#clip0)">
<path d="M304.184 33.099H302.843H271.262V14.0295H251.927V33.0843H240.918V51.9622H251.927V72.3286C251.927 97.3076 265.603 107.859 284.643 107.859V88.996C275.123 88.996 271.262 84.236 271.262 72.3433V51.977H283.7H294.87H295.047C299.321 52.0212 302.769 55.4549 302.843 59.7286V60.0086V69.0128V107.432H322.178V51.977V51.078C322.178 41.1454 314.117 33.099 304.184 33.099Z" fill="black"/>
<path d="M114.491 68.3349V107.432H95.156V68.3349C95.156 56.4423 90.6908 50.7833 81.0234 50.7833C71.5033 50.7833 66.9054 56.4275 66.9054 68.3349V107.432H47.5854V68.3349C47.5854 56.4423 43.1201 50.7833 33.4527 50.7833C23.9327 50.7833 19.3348 56.4275 19.3348 68.3349V107.432H0V68.3349C0 43.3559 14.4274 31.9053 33.4527 31.9053C42.9727 31.9053 51.7412 35.1769 57.238 42.1622C62.7349 35.1769 71.5181 31.9053 81.0234 31.9053C100.063 31.9053 114.491 43.3559 114.491 68.3349Z" fill="black"/>
<path d="M192.965 33.099V72.2107C192.965 97.1897 179.289 108.64 160.249 108.64C141.224 108.64 127.533 97.1897 127.533 72.2107V33.099H146.868V72.2107C146.868 84.1034 150.729 89.7623 160.249 89.7623C169.769 89.7623 173.63 84.1181 173.63 72.2107V33.099H192.965Z" fill="black"/>
<path d="M207.274 107.432V2.15157H226.609V107.432H207.274Z" fill="black"/>
<path d="M300.367 11.9958C300.367 5.29054 305.672 0 312.525 0C319.23 0 324.521 5.30528 324.521 11.9958C324.521 18.8485 319.216 24.1537 312.525 24.1537C305.658 24.1537 300.367 18.8632 300.367 11.9958Z" fill="#EC6309"/>
<path d="M332.685 70.2654C332.685 49.0001 349.78 31.9053 371.045 31.9053C388.744 31.9053 403.466 43.6506 407.917 59.7138H387.403C384.131 54.3644 378.34 50.798 371.192 50.798C360.184 50.798 352.005 59.2717 352.005 70.2802C352.005 81.2886 360.184 89.7623 371.192 89.7623C378.03 89.7623 383.38 86.4907 386.799 81.5834H407.769C403.009 97.3371 388.435 108.64 371.045 108.64C349.78 108.626 332.685 91.5308 332.685 70.2654Z" fill="black"/>
<path d="M415.889 70.2654C415.889 49.0001 433.132 31.9053 454.25 31.9053C475.367 31.9053 492.462 49.0001 492.462 70.2654V107.432H473.127V99.5476C470.902 104.455 462.723 108.611 454.25 108.611C433.132 108.626 415.889 91.5308 415.889 70.2654ZM473.275 70.2654C473.275 59.257 465.391 50.7833 454.397 50.7833C443.388 50.7833 435.224 59.257 435.224 70.2654C435.224 81.2739 443.403 89.7476 454.397 89.7476C465.405 89.7476 473.275 81.2592 473.275 70.2654Z" fill="black"/>
<path d="M619.995 68.3349V107.432H600.675V68.3349C600.675 56.4423 596.21 50.7833 586.557 50.7833C577.037 50.7833 572.439 56.4275 572.439 68.3349V107.432H553.104V68.3349C553.104 56.4423 548.639 50.7833 538.987 50.7833C529.467 50.7833 524.869 56.4275 524.869 68.3349V107.432H505.534V68.3349C505.534 43.3559 519.961 31.9053 538.987 31.9053C548.507 31.9053 557.275 35.1769 562.772 42.1622C568.269 35.1769 577.052 31.9053 586.557 31.9053C605.583 31.9053 619.995 43.3559 619.995 68.3349Z" fill="black"/>
<path d="M671.265 31.9053C692.383 31.9053 709.625 49.0001 709.625 70.2654C709.625 91.5308 692.383 108.626 671.265 108.626C663.675 108.626 657.736 106.695 652.534 102.981V137.186H633.052V70.2802C633.052 49.0001 650.147 31.9053 671.265 31.9053ZM690.29 70.2654C690.29 59.257 682.406 50.7833 671.412 50.7833C660.404 50.7833 652.225 59.257 652.225 70.2654C652.225 81.2739 660.404 89.7476 671.412 89.7476C682.421 89.7476 690.29 81.2592 690.29 70.2654Z" fill="black"/>
<path d="M785.549 33.099V72.2107C785.549 97.1897 771.873 108.64 752.833 108.64C733.808 108.64 720.118 97.1897 720.118 72.2107V33.099H739.452V72.2107C739.452 84.1034 743.313 89.7623 752.833 89.7623C762.353 89.7623 766.214 84.1181 766.214 72.2107V33.099H785.549Z" fill="black"/>
<path d="M796.057 83.3518H814.493C814.493 88.1118 820.446 91.3834 828.463 91.3834C836.495 91.3834 840.65 88.1118 840.65 84.2508C840.65 71.916 796.793 83.8086 796.793 54.3644C796.793 41.278 810.322 31.9201 827.564 31.9201C844.806 31.9201 857.893 40.5412 857.893 56.3096H839.457C839.457 51.9917 833.65 49.0296 827.269 49.0296C820.874 49.0296 816.114 52.0065 816.114 55.8675C816.114 66.5665 859.676 56.6044 859.971 84.7076C860.118 101.36 846.147 108.64 828.006 108.64C811.383 108.626 796.057 100.004 796.057 83.3518Z" fill="black"/>
</g>
<defs>
<clipPath id="clip0">
<path d="M0 0H860V137.171H0V0Z" fill="white"/>
</clipPath>
</defs>
</svg>
