<svg width="33" height="50" viewBox="0 0 33 50" fill="none" xmlns="http://www.w3.org/2000/svg">
<path d="M8.25 50C12.804 50 16.5 46.2667 16.5 41.6667V33.3334H8.25C3.696 33.3334 0 37.0667 0 41.6667C0 46.2667 3.696 50 8.25 50Z" fill="#0ACF83"/>
<path d="M0 25C0 20.4 3.696 16.6666 8.25 16.6666H16.5V33.3333H8.25C3.696 33.3333 0 29.6 0 25Z" fill="#A259FF"/>
<path d="M0 8.33333C0 3.73333 3.696 0 8.25 0H16.5V16.6667H8.25C3.696 16.6667 0 12.9333 0 8.33333Z" fill="#F24E1E"/>
<path d="M16.5 0H24.75C29.304 0 33 3.73333 33 8.33333C33 12.9333 29.304 16.6667 24.75 16.6667H16.5V0Z" fill="#FF7262"/>
<path d="M33 25C33 29.6 29.304 33.3333 24.75 33.3333C20.196 33.3333 16.5 29.6 16.5 25C16.5 20.4 20.196 16.6666 24.75 16.6666C29.304 16.6666 33 20.4 33 25Z" fill="#1ABCFE"/>
</svg>
