<svg width="50" height="49" viewBox="0 0 50 49" fill="none" xmlns="http://www.w3.org/2000/svg">
<path d="M41.1458 49H8.85417C3.95833 49 0 45.0214 0 40.1004V8.89957C0 3.97863 3.95833 0 8.85417 0H41.1458C46.0417 0 50 3.97863 50 8.89957V40.1004C50 45.0214 46.0417 49 41.1458 49Z" fill="#FF26BE"/>
<path d="M40.3542 46.9061H9.64587C5.47921 46.9061 2.08337 43.4928 2.08337 39.3048V9.6954C2.08337 5.50736 5.47921 2.09412 9.64587 2.09412H40.3334C44.5209 2.09412 47.8959 5.50736 47.8959 9.6954V39.2839C47.9167 43.4928 44.5209 46.9061 40.3542 46.9061Z" fill="#2E001F"/>
<path d="M19.7709 22.9294L25.6042 34.1953C25.7084 34.3628 25.6459 34.5303 25.4792 34.5303H21.8542C21.6251 34.5303 21.5209 34.4675 21.4167 34.2581C20.0834 31.494 18.7292 28.7299 17.3334 25.7564H17.2917C16.0417 28.5624 14.6667 31.5149 13.3334 34.279C13.2292 34.4465 13.1251 34.5094 12.9584 34.5094H9.52089C9.31255 34.5094 9.29172 34.3418 9.39589 34.2162L15.1042 23.2854L9.58339 12.229C9.45839 12.0615 9.58339 11.9359 9.70839 11.9359H13.2917C13.5001 11.9359 13.5834 11.9777 13.6667 12.1662C14.9792 14.9303 16.3126 17.7782 17.5626 20.5632H17.6042C18.8126 17.7991 20.1459 14.9303 21.4376 12.1871C21.5417 12.0196 21.6042 11.9149 21.8126 11.9149H25.1667C25.3334 11.9149 25.3959 12.0406 25.2917 12.2081L19.7709 22.9294ZM26.6251 26.3427C26.6251 21.4636 29.8542 17.6525 34.9792 17.6525C35.4167 17.6525 35.6459 17.6525 36.0626 17.6944V12.1453C36.0626 12.0196 36.1667 11.9359 36.2709 11.9359H39.5626C39.7292 11.9359 39.7709 11.9987 39.7709 12.1034V31.3265C39.7709 31.8918 39.7709 32.6038 39.8751 33.3786C39.8751 33.5042 39.8334 33.5461 39.7084 33.6089C37.9584 34.4465 36.1251 34.8235 34.3751 34.8235C29.8542 34.8444 26.6251 32.0384 26.6251 26.3427ZM36.0626 20.982C35.7709 20.8564 35.3542 20.7726 34.8542 20.7726C32.2292 20.7726 30.3959 22.8038 30.3959 26.1752C30.3959 30.0282 32.2709 31.5777 34.6251 31.5777C35.1251 31.5777 35.6667 31.5149 36.0626 31.3474V20.982Z" fill="#FFD9F2"/>
</svg>
