<svg width="50" height="44" viewBox="0 0 50 44" fill="none" xmlns="http://www.w3.org/2000/svg">
<path fill-rule="evenodd" clip-rule="evenodd" d="M24.9999 44.0001L0 15.7496L10.8299 1.47668L24.9999 0.000175476L39.1699 1.47668L49.9999 15.7496L24.9999 44.0001Z" fill="#FFAE00"/>
<path fill-rule="evenodd" clip-rule="evenodd" d="M25.0001 43.9999L0.00012207 15.7494L50 15.7494L25.0001 43.9999Z" fill="#EC6C00"/>
<path fill-rule="evenodd" clip-rule="evenodd" d="M25 43.9999L10.1215 15.7494L39.8785 15.7494L25 43.9999Z" fill="#FFAE00"/>
<path fill-rule="evenodd" clip-rule="evenodd" d="M25 -3.14713e-05L10.1215 15.7494L39.8785 15.7494L25 -3.14713e-05Z" fill="#FFEFB4"/>
<path fill-rule="evenodd" clip-rule="evenodd" d="M10.8298 1.47648L5.26305 8.66215L-9.82285e-05 15.7494L10.2225 15.7494L10.8298 1.47648Z" fill="#FFAE00"/>
<path fill-rule="evenodd" clip-rule="evenodd" d="M39.1703 1.47648L44.7371 8.66215L50.0002 15.7494L39.7776 15.7494L39.1703 1.47648Z" fill="#FFAE00"/>
<path fill-rule="evenodd" clip-rule="evenodd" d="M10.83 1.47648L10.1215 15.7494L25 -3.14713e-05L10.83 1.47648Z" fill="#FED305"/>
<path fill-rule="evenodd" clip-rule="evenodd" d="M39.1701 1.47648L39.8786 15.7494L25.0001 -3.14713e-05L39.1701 1.47648Z" fill="#FED305"/>
</svg>
